<?xml version="1.0" encoding="UTF-8"?>
<svg width="145px" height="60px" viewBox="0 0 145 60" version="1.1" xmlns="http://www.w3.org/2000/svg" xmlns:xlink="http://www.w3.org/1999/xlink">
    <title>Group 3</title>
    <defs>
        <linearGradient x1="3.27777778%" y1="0%" x2="96.7222222%" y2="100%" id="linearGradient-1">
            <stop stop-color="#F2385D" offset="0%"></stop>
            <stop stop-color="#760630" offset="100%"></stop>
        </linearGradient>
    </defs>
    <g id="Page-3" stroke="none" stroke-width="1" fill="none" fill-rule="evenodd">
        <g id="iPhone-11-Pro-Copy-3" transform="translate(-62.000000, -470.000000)">
            <g id="Group-3" transform="translate(62.000000, 470.000000)">
                <path d="M80.8291016,27.2 C87.171875,27.2 90.9072266,23.2595703 90.9072266,16.5505859 C90.9072266,9.84160156 87.171875,6.06230469 80.8291016,6.06230469 L72.7578125,6.06230469 L72.7578125,27.2 L80.8291016,27.2 Z M80.3017578,23.5378906 L77.1816406,23.5378906 L77.1816406,9.70976562 L80.3017578,9.70976562 C84.1982422,9.70976562 86.3955078,12.1414062 86.3955078,16.5652344 C86.3955078,21.1355469 84.2568359,23.5378906 80.3017578,23.5378906 Z M95.5947266,9.37285156 C96.8398438,9.37285156 97.8212891,8.37675781 97.8212891,7.17558594 C97.8212891,5.95976562 96.8398438,4.97832031 95.5947266,4.97832031 C94.3496094,4.97832031 93.3681641,5.95976562 93.3681641,7.17558594 C93.3681641,8.37675781 94.3496094,9.37285156 95.5947266,9.37285156 Z M97.7480469,27.2 L97.7480469,11.496875 L93.4707031,11.496875 L93.4707031,27.2 L97.7480469,27.2 Z M106.419922,27.4490234 C108.734375,27.4490234 110.550781,26.2332031 111.3125,24.5046875 L111.385742,24.5046875 L111.385742,27.2 L115.604492,27.2 L115.604492,6.06230469 L111.327148,6.06230469 L111.327148,14.1921875 L111.239258,14.1921875 C110.477539,12.4490234 108.719727,11.2478516 106.449219,11.2478516 C102.508789,11.2478516 100.018555,14.3386719 100.018555,19.3191406 C100.018555,24.3435547 102.494141,27.4490234 106.419922,27.4490234 Z M107.870117,24.0066406 C105.716797,24.0066406 104.398438,22.2341797 104.398438,19.3484375 C104.398438,16.4773437 105.716797,14.6755859 107.870117,14.6755859 C109.994141,14.6755859 111.356445,16.4919922 111.356445,19.3484375 C111.356445,22.2195312 109.994141,24.0066406 107.870117,24.0066406 Z M125.667969,27.5369141 C130.414062,27.5369141 133.446289,24.5046875 133.446289,19.3337891 C133.446289,14.2361328 130.370117,11.1599609 125.667969,11.1599609 C120.96582,11.1599609 117.889648,14.2507812 117.889648,19.3337891 C117.889648,24.4900391 120.921875,27.5369141 125.667969,27.5369141 Z M125.667969,24.2703125 C123.558594,24.2703125 122.225586,22.4978516 122.225586,19.3484375 C122.225586,16.2283203 123.587891,14.4265625 125.667969,14.4265625 C127.748047,14.4265625 129.095703,16.2283203 129.095703,19.3484375 C129.095703,22.4978516 127.762695,24.2703125 125.667969,24.2703125 Z M139.920898,27.2 L139.920898,18.4255859 C139.920898,16.2136719 141.151367,14.9246094 143.260742,14.9246094 C143.875977,14.9246094 144.461914,15.0271484 144.813477,15.1736328 L144.813477,11.4089844 C144.520508,11.3210937 144.095703,11.2478516 143.597656,11.2478516 C141.751953,11.2478516 140.418945,12.3318359 139.862305,14.3240234 L139.774414,14.3240234 L139.774414,11.496875 L135.643555,11.496875 L135.643555,27.2 L139.920898,27.2 Z" id="Didor" fill="#333333" fill-rule="nonzero"></path>
                <path d="M80.8291016,54 C87.171875,54 90.9072266,50.0595703 90.9072266,43.3505859 C90.9072266,36.6416016 87.171875,32.8623047 80.8291016,32.8623047 L72.7578125,32.8623047 L72.7578125,54 L80.8291016,54 Z M80.3017578,50.3378906 L77.1816406,50.3378906 L77.1816406,36.5097656 L80.3017578,36.5097656 C84.1982422,36.5097656 86.3955078,38.9414062 86.3955078,43.3652344 C86.3955078,47.9355469 84.2568359,50.3378906 80.3017578,50.3378906 Z M100.604492,54.3369141 C105.350586,54.3369141 108.382812,51.3046875 108.382812,46.1337891 C108.382812,41.0361328 105.306641,37.9599609 100.604492,37.9599609 C95.9023438,37.9599609 92.8261719,41.0507812 92.8261719,46.1337891 C92.8261719,51.2900391 95.8583984,54.3369141 100.604492,54.3369141 Z M100.604492,51.0703125 C98.4951172,51.0703125 97.1621094,49.2978516 97.1621094,46.1484375 C97.1621094,43.0283203 98.5244141,41.2265625 100.604492,41.2265625 C102.68457,41.2265625 104.032227,43.0283203 104.032227,46.1484375 C104.032227,49.2978516 102.699219,51.0703125 100.604492,51.0703125 Z M117.743164,54.3369141 C121.874023,54.3369141 124.642578,51.9492188 124.862305,48.2431641 L120.87793,48.2431641 C120.614258,49.9570312 119.500977,50.9824219 117.787109,50.9824219 C115.663086,50.9824219 114.344727,49.2246094 114.344727,46.1337891 C114.344727,43.1015625 115.663086,41.3144531 117.772461,41.3144531 C119.530273,41.3144531 120.628906,42.4863281 120.87793,44.1416016 L124.847656,44.1416016 C124.657227,40.5820312 121.961914,37.9599609 117.713867,37.9599609 C113.011719,37.9599609 110.008789,41.0947266 110.008789,46.1337891 C110.008789,51.2607422 113.011719,54.3369141 117.743164,54.3369141 Z M133.387695,54.3369141 C137.430664,54.3369141 140.257812,52.3007812 140.257812,49.2099609 C140.257812,46.9101562 138.910156,45.6210938 135.628906,44.9326172 L132.948242,44.3613281 C131.366211,44.0244141 130.780273,43.4824219 130.780273,42.6767578 C130.780273,41.6367188 131.761719,40.9628906 133.241211,40.9628906 C134.823242,40.9628906 135.775391,41.8271484 135.907227,43.1015625 L139.847656,43.1015625 C139.759766,40.0253906 137.269531,37.9599609 133.241211,37.9599609 C129.242188,37.9599609 126.664062,39.9228516 126.664062,42.9111328 C126.664062,45.2695312 128.202148,46.7929688 131.234375,47.4375 L133.915039,47.9941406 C135.453125,48.3457031 135.995117,48.8144531 135.995117,49.6494141 C135.995117,50.6748047 134.999023,51.3339844 133.387695,51.3339844 C131.688477,51.3339844 130.707031,50.6015625 130.443359,49.2246094 L126.268555,49.2246094 C126.546875,52.3154297 129.051758,54.3369141 133.387695,54.3369141 Z" id="Docs" fill="#333333" fill-rule="nonzero"></path>
                <path d="M58,31.8171105 L57.9912979,31.9717016 C57.0164386,47.4983749 44.6224925,59.7497178 29.4661571,59.9957568 L29.4661571,59.9957568 L28.99787,59.999546 L3.55271368e-15,60 L0.00871821734,59.8518799 C0.970030546,44.5016433 13.1025666,32.3248572 28.0602744,31.8340659 L28.0602744,31.8340659 L28.5219188,31.8226397 L29.0025526,31.8186573 L58,31.8171105 Z M7.10542736e-15,-2.80664381e-13 L29.0001699,0.00155675474 L29.4644783,0.00531929168 C44.6041467,0.25083724 57.0127245,12.4824688 57.9909684,28.0241016 L57.9909684,28.0241016 L57.9990218,28.1828895 L29.0001805,28.1824261 L28.5172581,28.1783764 L28.0636581,28.1671782 C13.1227713,27.6794588 0.97374021,15.520467 0.00904226272,0.154425832 L0.00904226272,0.154425832 L7.10542736e-15,-2.80664381e-13 Z" id="Combined-Shape-Copy-28" fill="url(#linearGradient-1)"></path>
            </g>
        </g>
    </g>
</svg>